<svg width="42" height="40" viewBox="0 0 42 40" fill="none" xmlns="http://www.w3.org/2000/svg">
<path d="M9.4693 6.45125H5.55499C4.74771 6.45125 4.09329 7.10573 4.09329 7.9131V11.8279C4.09329 12.6352 4.74771 13.2897 5.55499 13.2897H9.4693C10.2766 13.2897 10.931 12.6352 10.931 11.8279V7.9131C10.931 7.10573 10.2766 6.45125 9.4693 6.45125Z" fill="white"/>
<path d="M2.96697 2.89194H1.12635C0.746766 2.89194 0.43901 3.19969 0.43901 3.57932V5.42018C0.43901 5.79981 0.746766 6.10755 1.12635 6.10755H2.96697C3.34656 6.10755 3.65432 5.79981 3.65432 5.42018V3.57932C3.65432 3.19969 3.34656 2.89194 2.96697 2.89194Z" fill="white"/>
<path d="M3.21769 14.7221H0.875633C0.392048 14.7221 3.18438e-05 15.1142 3.18438e-05 15.5979V17.9401C3.18438e-05 18.4238 0.392048 18.8158 0.875633 18.8158H3.21769C3.70128 18.8158 4.09329 18.4238 4.09329 17.9401V15.5979C4.09329 15.1142 3.70128 14.7221 3.21769 14.7221Z" fill="white"/>
<path d="M12.9188 0H10.412C9.89464 0 9.47522 0.419463 9.47522 0.936902V3.44396C9.47522 3.9614 9.89464 4.38086 10.412 4.38086H12.9188C13.4362 4.38086 13.8556 3.9614 13.8556 3.44396V0.936902C13.8556 0.419463 13.4362 0 12.9188 0Z" fill="white"/>
<path d="M35.0926 11.4041H25.4386C24.7642 11.4041 24.2181 10.858 24.2181 10.1836V8.53692C24.2181 7.19512 23.1307 6.10755 21.789 6.10755H15.2891C13.9474 6.10755 12.8599 7.19512 12.8599 8.53692V13.418C12.8599 14.2113 12.2174 14.854 11.4242 14.854H8.45015C7.10849 14.854 6.02103 15.9415 6.02103 17.2833V23.7852C6.02103 25.127 7.10849 26.2146 8.45015 26.2146H11.45C12.1244 26.2146 12.6705 26.7607 12.6705 27.4351V33.8299C12.6705 37.1985 15.4009 39.928 18.768 39.928H35.0903C38.4585 39.928 41.1877 37.1973 41.1877 33.8299V17.5058C41.1877 14.1372 38.4574 11.4077 35.0903 11.4077L35.0926 11.4041ZM31.9739 29.2831C31.9197 30.1317 31.8467 30.9791 31.7538 31.8278C31.7349 31.9984 31.5808 32.1644 31.4101 32.1962C28.3172 32.767 25.2244 32.767 22.1315 32.1962C21.9609 32.1644 21.8067 31.9984 21.7879 31.8278C21.3395 27.7011 21.3395 23.5745 21.7879 19.4479C21.8067 19.2772 21.9609 19.1113 22.1315 19.0795C23.1248 18.8959 24.1169 18.7711 25.1102 18.7064C25.2809 18.6946 25.415 18.8358 25.4103 19.0194C25.3185 22.3045 25.2962 25.5896 25.3409 28.8746C25.3433 29.0571 25.4915 29.2101 25.6728 29.2136C27.6711 29.2536 29.6683 29.1842 31.6667 29.0053C31.8468 28.9888 31.9856 29.1136 31.9739 29.2842V29.2831Z" fill="white"/>
</svg>
